PathFileType  4	(X/Y/Z)
DataRate	CameraRate	NumFrames	NumMarkers	Units	OrigDataRate	OrigDataStartFrame	OrigNumFrames
  200.0 	  200.0 	    12 	     40 	mm 	  200.0 	      322 	    515
Frame#	Time	R.Shoulder			R.Clavicle			R.Bicep			R.Elbow			R.Forearm			R.Wrist			L.Shoulder			L.Clavicle			L.Scapula			L.Bicep			L.Elbow			L.Forearm			L.Wrist			R.ASIS			R.PSIS			S2			L.PSIS			L.ASIS			R.TH1			R.TH2			R.TH3			R.Knee			R.SH1			R.SH2			R.SH3			R.SH4			R.Ankle			R.Heel			R.MT5			L.TH1			L.TH2			L.TH3			L.TH4			L.Knee			L.SH1			L.SH2			L.SH3			L.Ankle			L.Heel			L.MT5			
		X1	Y1	Z1	X2	Y2	Z2	X3	Y3	Z3	X4	Y4	Z4	X5	Y5	Z5	X6	Y6	Z6	X7	Y7	Z7	X8	Y8	Z8	X9	Y9	Z9	X10	Y10	Z10	X11	Y11	Z11	X12	Y12	Z12	X13	Y13	Z13	X14	Y14	Z14	X15	Y15	Z15	X16	Y16	Z16	X17	Y17	Z17	X18	Y18	Z18	X19	Y19	Z19	X20	Y20	Z20	X21	Y21	Z21	X22	Y22	Z22	X23	Y23	Z23	X24	Y24	Z24	X25	Y25	Z25	X26	Y26	Z26	X27	Y27	Z27	X28	Y28	Z28	X29	Y29	Z29	X30	Y30	Z30	X31	Y31	Z31	X32	Y32	Z32	X33	Y33	Z33	X34	Y34	Z34	X35	Y35	Z35	X36	Y36	Z36	X37	Y37	Z37	X38	Y38	Z38	X39	Y39	Z39	X40	Y40	Z40	

322	1.60500	464.572	1354.810	-4.928	515.168	1338.953	-153.649	503.240	1132.980	-2.347	431.253	1051.406	96.146	541.223	981.498	61.047	565.444	878.984	116.911	464.832	1346.534	-384.890	521.383	1334.780	-210.070	337.324	1345.599	-277.944	480.268	1169.225	-401.939	391.104	1045.616	-468.297	445.640	944.197	-454.590	414.628	837.468	-501.271	525.038	910.036	-53.839	286.905	964.489	-139.900	282.242	958.504	-191.223	293.665	969.637	-246.099	522.591	908.496	-314.533	471.503	680.255	-6.862	322.562	683.594	-43.552	327.467	611.363	-62.336	377.609	469.860	-63.859	405.222	330.067	-53.544	403.469	257.216	-72.951	300.925	348.710	-107.034	296.777	273.308	-119.183	361.928	71.653	-120.098	300.682	43.487	-182.023	478.771	22.116	-87.231	568.611	686.553	-382.500	606.140	615.616	-363.263	435.934	620.874	-382.312	465.443	549.377	-369.557	530.985	498.596	-381.334	541.812	399.149	-389.569	445.720	443.536	-356.280	410.695	371.690	-357.470	399.442	125.761	-350.770	310.631	122.689	-300.771	470.758	34.448	-366.882
323	1.61000	470.846	1355.093	-4.878	521.394	1339.007	-153.548	509.940	1133.544	-1.950	438.361	1051.727	96.706	548.933	982.942	61.337	574.287	880.515	116.882	470.852	1346.467	-384.949	527.621	1334.755	-209.986	343.560	1345.569	-277.807	484.621	1168.857	-402.076	393.064	1046.421	-467.795	446.075	943.992	-455.147	412.316	838.200	-502.156	530.428	909.854	-53.237	292.655	964.651	-140.304	288.196	958.555	-191.604	299.842	969.711	-246.484	529.001	908.791	-313.880	474.721	679.727	-6.663	325.968	684.525	-44.134	330.279	612.243	-62.928	378.880	470.206	-64.092	405.812	330.248	-53.567	403.801	257.378	-72.918	301.828	349.320	-107.562	297.422	273.916	-119.686	362.006	71.717	-120.149	300.641	43.461	-182.096	478.747	22.113	-87.172	576.532	687.415	-380.820	614.015	616.673	-361.225	444.173	621.167	-382.213	473.768	549.807	-369.399	539.299	498.793	-379.728	552.490	399.736	-388.159	455.089	440.769	-354.923	422.313	367.963	-356.402	419.062	121.720	-350.649	330.408	115.482	-300.771	493.382	32.847	-367.051
324	1.61500	477.125	1355.260	-4.836	527.630	1338.956	-153.452	516.654	1133.999	-1.539	445.476	1051.943	97.263	556.642	984.279	61.639	583.100	881.929	116.866	476.892	1346.304	-385.016	533.870	1334.629	-209.907	349.805	1345.448	-277.681	488.950	1168.436	-402.267	395.030	1047.193	-467.314	446.535	943.818	-455.747	410.109	838.996	-502.999	535.830	909.568	-52.668	298.415	964.761	-140.715	294.162	958.538	-191.985	306.030	969.684	-246.868	535.444	908.945	-313.259	477.981	679.188	-6.514	329.413	685.406	-44.708	333.140	613.078	-63.506	380.224	470.529	-64.338	406.450	330.413	-53.612	404.173	257.525	-72.908	302.777	349.915	-108.098	298.103	274.516	-120.190	362.085	71.779	-120.215	300.608	43.431	-182.175	478.715	22.105	-87.114	584.347	688.033	-379.107	621.740	617.465	-359.146	452.283	621.325	-382.055	481.911	550.082	-369.175	547.412	498.813	-378.098	563.035	400.256	-386.729	464.418	437.809	-353.604	433.975	364.120	-355.371	438.917	117.851	-350.566	350.533	108.426	-300.859	516.183	31.561	-367.202
325	1.62000	483.409	1355.311	-4.802	533.878	1338.797	-153.362	523.384	1134.347	-1.116	452.604	1052.055	97.814	564.352	985.504	61.950	591.887	883.225	116.862	482.955	1346.043	-385.090	540.130	1334.402	-209.834	356.061	1345.235	-277.566	493.255	1167.963	-402.511	397.008	1047.933	-466.856	447.025	943.673	-456.390	408.018	839.849	-503.799	541.246	909.179	-52.132	304.190	964.822	-141.134	300.141	958.458	-192.366	312.230	969.560	-247.253	541.916	908.956	-312.672	481.287	678.639	-6.415	332.900	686.240	-45.269	336.053	613.869	-64.066	381.645	470.830	-64.592	407.141	330.560	-53.679	404.588	257.656	-72.920	303.775	350.496	-108.636	298.824	275.107	-120.691	362.168	71.839	-120.297	300.584	43.400	-182.258	478.674	22.090	-87.056	592.050	688.403	-377.365	629.316	617.988	-357.030	460.258	621.340	-381.832	489.866	550.195	-368.879	555.326	498.654	-376.448	573.449	400.713	-385.279	473.715	434.670	-352.331	445.687	360.179	-354.383	458.993	114.185	-350.519	370.993	101.557	-301.029	539.141	30.617	-367.331
326	1.62500	489.699	1355.244	-4.774	540.138	1338.531	-153.278	530.127	1134.586	-0.687	459.750	1052.062	98.361	572.064	986.613	62.264	600.649	884.403	116.868	489.039	1345.685	-385.171	546.403	1334.074	-209.765	362.330	1344.932	-277.461	497.539	1167.438	-402.808	399.002	1048.639	-466.422	447.554	943.555	-457.075	406.051	840.749	-504.558	546.677	908.690	-51.630	309.981	964.835	-141.562	306.135	958.319	-192.750	318.445	969.343	-247.639	548.416	908.823	-312.120	484.644	678.079	-6.363	336.433	687.025	-45.815	339.021	614.617	-64.607	383.150	471.109	-64.853	407.890	330.690	-53.765	405.051	257.772	-72.952	304.826	351.063	-109.173	299.586	275.689	-121.185	362.253	71.898	-120.393	300.569	43.372	-182.342	478.625	22.066	-86.998	599.636	688.523	-375.600	636.738	618.238	-354.886	468.089	621.208	-381.544	497.630	550.142	-368.503	563.045	498.315	-374.782	583.737	401.112	-383.811	482.986	431.366	-351.113	457.454	356.158	-353.443	479.272	110.751	-350.503	391.771	94.908	-301.275	562.230	30.044	-367.434
327	1.63000	495.994	1355.061	-4.754	546.411	1338.158	-153.200	536.882	1134.716	-0.257	466.917	1051.968	98.904	579.779	987.604	62.579	609.388	885.463	116.881	495.145	1345.231	-385.259	552.687	1333.646	-209.702	368.613	1344.540	-277.367	501.805	1166.863	-403.156	401.016	1049.310	-466.012	448.127	943.463	-457.800	404.220	841.689	-505.275	552.127	908.106	-51.161	315.792	964.800	-142.001	312.147	958.124	-193.141	324.680	969.036	-248.029	554.942	908.547	-311.602	488.055	677.510	-6.357	340.016	687.763	-46.343	342.048	615.321	-65.125	384.743	471.367	-65.116	408.700	330.800	-53.869	405.565	257.873	-73.002	305.934	351.617	-109.703	300.392	276.262	-121.668	362.343	71.955	-120.503	300.561	43.349	-182.424	478.568	22.032	-86.941	607.102	688.391	-373.818	644.009	618.217	-352.721	475.770	620.923	-381.186	505.199	549.918	-368.045	570.577	497.798	-373.106	593.901	401.458	-382.327	492.239	427.914	-349.956	469.278	352.075	-352.555	499.731	107.575	-350.511	412.845	88.511	-301.587	585.422	29.862	-367.507
328	1.63500	502.295	1354.763	-4.742	552.698	1337.679	-153.130	543.649	1134.740	0.171	474.109	1051.774	99.440	587.497	988.475	62.889	618.104	886.406	116.900	501.271	1344.683	-385.353	558.983	1333.118	-209.645	374.911	1344.060	-277.283	506.055	1166.238	-403.551	403.057	1049.946	-465.627	448.752	943.395	-458.562	402.533	842.660	-505.949	557.598	907.432	-50.724	321.624	964.718	-142.453	318.176	957.876	-193.543	330.935	968.641	-248.426	561.492	908.128	-311.117	491.523	676.930	-6.392	343.653	688.453	-46.851	345.136	615.983	-65.618	386.427	471.603	-65.381	409.577	330.891	-53.986	406.134	257.956	-73.067	307.102	352.158	-110.223	301.248	276.827	-122.137	362.436	72.011	-120.626	300.561	43.334	-182.503	478.503	21.987	-86.884	614.445	688.010	-372.025	651.127	617.927	-350.546	483.295	620.483	-380.760	512.574	549.520	-367.499	577.928	497.107	-371.424	603.949	401.756	-380.830	501.482	424.332	-348.866	481.161	347.951	-351.724	520.342	104.681	-350.539	434.187	82.397	-301.956	608.680	30.090	-367.544
329	1.64000	508.603	1354.352	-4.736	558.998	1337.096	-153.066	550.427	1134.657	0.590	481.327	1051.482	99.969	595.218	989.225	63.190	626.799	887.234	116.922	507.418	1344.044	-385.455	565.292	1332.492	-209.593	381.226	1343.494	-277.209	510.296	1165.564	-403.992	405.129	1050.545	-465.268	449.438	943.348	-459.357	400.999	843.655	-506.583	563.093	906.674	-50.317	327.481	964.589	-142.921	324.225	957.575	-193.960	337.213	968.162	-248.834	568.063	907.569	-310.664	495.051	676.339	-6.465	347.347	689.097	-47.336	348.289	616.603	-66.083	388.208	471.817	-65.642	410.524	330.961	-54.115	406.762	258.023	-73.144	308.334	352.686	-110.727	302.154	277.384	-122.588	362.534	72.064	-120.761	300.570	43.331	-182.577	478.430	21.931	-86.826	621.662	687.386	-370.228	658.095	617.374	-348.369	490.662	619.885	-380.263	519.755	548.948	-366.864	585.110	496.247	-369.741	613.884	402.012	-379.321	510.722	420.639	-347.848	493.103	343.806	-350.951	541.072	102.088	-350.577	455.765	76.592	-302.368	631.966	30.743	-367.542
330	1.64500	514.916	1353.830	-4.739	565.311	1336.410	-153.010	557.213	1134.470	0.996	488.574	1051.096	100.489	602.943	989.853	63.478	635.473	887.950	116.947	513.584	1343.315	-385.563	571.611	1331.769	-209.548	387.558	1342.844	-277.145	514.533	1164.844	-404.473	407.241	1051.108	-464.932	450.193	943.321	-460.181	399.627	844.667	-507.175	568.614	905.838	-49.941	333.364	964.411	-143.408	330.294	957.224	-194.396	343.515	967.600	-249.255	574.653	906.873	-310.240	498.643	675.737	-6.570	351.101	689.694	-47.795	351.511	617.181	-66.519	390.088	472.009	-65.899	411.545	331.010	-54.252	407.451	258.072	-73.230	309.633	353.201	-111.213	303.115	277.933	-123.018	362.636	72.116	-120.907	300.587	43.340	-182.642	478.350	21.865	-86.768	628.752	686.525	-368.434	664.915	616.567	-346.200	497.869	619.130	-379.697	526.745	548.202	-366.139	592.137	495.226	-368.064	623.713	402.231	-377.802	519.966	416.859	-346.904	505.102	339.663	-350.239	561.886	99.811	-350.616	477.539	71.119	-302.810	655.236	31.827	-367.495
331	1.65000	521.236	1353.202	-4.749	571.638	1335.626	-152.963	564.009	1134.181	1.384	495.851	1050.618	100.999	610.669	990.359	63.751	644.125	888.555	116.972	519.769	1342.501	-385.679	577.943	1330.954	-209.509	393.908	1342.112	-277.091	518.771	1164.078	-404.990	409.398	1051.634	-464.621	451.025	943.310	-461.029	398.425	845.689	-507.727	574.164	904.931	-49.592	339.276	964.183	-143.914	336.384	956.821	-194.853	349.844	966.956	-249.694	581.261	906.043	-309.846	502.301	675.122	-6.703	354.919	690.244	-48.226	354.804	617.717	-66.925	392.072	472.179	-66.147	412.644	331.037	-54.393	408.206	258.103	-73.322	311.004	353.706	-111.676	304.134	278.475	-123.425	362.744	72.165	-121.062	300.613	43.363	-182.698	478.265	21.788	-86.710	635.716	685.439	-366.653	671.594	615.518	-344.052	504.916	618.219	-379.064	533.552	547.287	-365.325	599.022	494.052	-366.397	633.444	402.419	-376.276	529.224	413.013	-346.036	517.153	335.544	-349.586	582.741	97.863	-350.648	499.465	65.997	-303.266	678.441	33.345	-367.398
332	1.65500	527.563	1352.471	-4.767	577.978	1334.746	-152.925	570.811	1133.792	1.750	503.157	1050.052	101.495	618.397	990.744	64.004	652.755	889.053	116.996	525.972	1341.605	-385.801	584.285	1330.047	-209.477	400.277	1341.301	-277.047	523.018	1163.269	-405.538	411.608	1052.122	-464.332	451.944	943.312	-461.894	397.400	846.713	-508.241	579.747	903.960	-49.269	345.218	963.904	-144.443	342.495	956.368	-195.337	356.201	966.233	-250.153	587.883	905.085	-309.478	506.029	674.492	-6.857	358.804	690.747	-48.627	358.172	618.210	-67.297	394.163	472.326	-66.383	413.824	331.040	-54.536	409.028	258.113	-73.417	312.451	354.199	-112.113	305.214	279.010	-123.806	362.859	72.213	-121.225	300.648	43.403	-182.743	478.174	21.702	-86.651	642.556	684.139	-364.891	678.138	614.242	-341.933	511.808	617.155	-378.367	540.185	546.206	-364.425	605.783	492.737	-364.747	643.084	402.581	-374.746	538.500	409.124	-345.242	529.250	331.470	-348.993	603.592	96.249	-350.661	521.491	61.242	-303.719	701.529	35.291	-367.247
333	1.66000	533.898	1351.640	-4.794	584.329	1333.773	-152.897	577.620	1133.305	2.089	510.492	1049.400	101.976	626.125	991.009	64.235	661.362	889.448	117.017	532.191	1340.632	-385.931	590.638	1329.052	-209.454	406.663	1340.414	-277.013	527.282	1162.417	-406.113	413.881	1052.571	-464.064	452.958	943.323	-462.773	396.558	847.733	-508.716	585.365	902.934	-48.969	351.193	963.573	-144.997	348.629	955.862	-195.849	362.584	965.432	-250.635	594.519	904.003	-309.135	509.828	673.847	-7.027	362.759	691.202	-48.996	361.617	618.660	-67.637	396.364	472.449	-66.606	415.090	331.017	-54.676	409.922	258.103	-73.512	313.978	354.683	-112.521	306.359	279.539	-124.159	362.980	72.260	-121.395	300.692	43.459	-182.776	478.078	21.608	-86.592	649.275	682.642	-363.157	684.556	612.756	-339.855	518.551	615.942	-377.611	546.655	544.967	-363.442	612.441	491.293	-363.118	652.641	402.720	-373.213	547.802	405.218	-344.521	541.384	327.464	-348.456	624.389	94.970	-350.645	543.562	56.863	-304.152	724.443	37.654	-367.035
